# xmcd
# 
# Track frame offsets:
#     150
#     23980
#     56955
#     75809
#     108951
#     127591
#     152162
#     178118
#     192959
#     195834
#     210699
# 
# Disc length: 3066
# 
# Revision: 3
# Processed by: cddbd v1.5.2PL0 Copyright (c) Steve Scherf et al.
# Submitted via: fre:ac v1.0.17
# 
DISCID=840bf80b
DTITLE=Moody Blues - Long Distance Voyager
DYEAR=1981
DGENRE=Progressive Rock
TTITLE0=The Voice
TTITLE1=Talking Out Of Turn
TTITLE2=Gemini Dream
TTITLE3=In My World
TTITLE4=Meanwhile
TTITLE5=22,000 Days
TTITLE6=Nervous
TTITLE7=Painted Smile
TTITLE8=Reflective Smile
TTITLE9=Veteran Cosmic Rocker
TTITLE10=The Voice (Single Edit)
EXTD=Digitally remastered
EXTT0=
EXTT1=
EXTT2=
EXTT3=
EXTT4=
EXTT5=
EXTT6=
EXTT7=
EXTT8=
EXTT9=
EXTT10=
PLAYORDER=
